<svg width="280" height="160" xmlns="http://www.w3.org/2000/svg">
  <rect width="280" height="160" fill="#F8E0F0"/>
  <g fill="#F0D0E8">
    <ellipse cx="70" cy="50" rx="8" ry="20" transform="rotate(0 70 50)"/>
    <ellipse cx="70" cy="50" rx="8" ry="20" transform="rotate(60 70 50)"/>
    <ellipse cx="70" cy="50" rx="8" ry="20" transform="rotate(120 70 50)"/>
    <ellipse cx="140" cy="110" rx="8" ry="20" transform="rotate(0 140 110)"/>
    <ellipse cx="140" cy="110" rx="8" ry="20" transform="rotate(60 140 110)"/>
    <ellipse cx="140" cy="110" rx="8" ry="20" transform="rotate(120 140 110)"/>
    <ellipse cx="210" cy="50" rx="8" ry="20" transform="rotate(0 210 50)"/>
    <ellipse cx="210" cy="50" rx="8" ry="20" transform="rotate(60 210 50)"/>
    <ellipse cx="210" cy="50" rx="8" ry="20" transform="rotate(120 210 50)"/>
  </g>
</svg>