<svg width="128" height="128" xmlns="http://www.w3.org/2000/svg">
  <rect width="128" height="128" fill="#8B1469"/>
  <g fill="#BF4096">
    <ellipse cx="32" cy="32" rx="4" ry="12" transform="rotate(0 32 32)"/>
    <ellipse cx="32" cy="32" rx="4" ry="12" transform="rotate(60 32 32)"/>
    <ellipse cx="32" cy="32" rx="4" ry="12" transform="rotate(120 32 32)"/>
    <ellipse cx="64" cy="70" rx="4" ry="12" transform="rotate(0 64 70)"/>
    <ellipse cx="64" cy="70" rx="4" ry="12" transform="rotate(60 64 70)"/>
    <ellipse cx="64" cy="70" rx="4" ry="12" transform="rotate(120 64 70)"/>
    <ellipse cx="96" cy="32" rx="4" ry="12" transform="rotate(0 96 32)"/>
    <ellipse cx="96" cy="32" rx="4" ry="12" transform="rotate(60 96 32)"/>
    <ellipse cx="96" cy="32" rx="4" ry="12" transform="rotate(120 96 32)"/>
    <ellipse cx="32" cy="96" rx="4" ry="12" transform="rotate(0 32 96)"/>
    <ellipse cx="32" cy="96" rx="4" ry="12" transform="rotate(60 32 96)"/>
    <ellipse cx="32" cy="96" rx="4" ry="12" transform="rotate(120 32 96)"/>
  </g>
</svg>