<svg width="128" height="128" xmlns="http://www.w3.org/2000/svg">
  <rect width="128" height="128" fill="#E8E0F8"/>
  <polygon points="32,24 40,32 32,40 24,32" fill="#B8A0E0"/>
  <polygon points="64,24 72,32 64,40 56,32" fill="#B8A0E0"/>
  <polygon points="96,24 104,32 96,40 88,32" fill="#B8A0E0"/>
  <polygon points="48,48 56,56 48,64 40,56" fill="#B8A0E0"/>
  <polygon points="80,48 88,56 80,64 72,56" fill="#B8A0E0"/>
  <polygon points="32,72 40,80 32,88 24,80" fill="#B8A0E0"/>
  <polygon points="64,72 72,80 64,88 56,80" fill="#B8A0E0"/>
  <polygon points="96,72 104,80 96,88 88,80" fill="#B8A0E0"/>
  <polygon points="48,96 56,104 48,112 40,104" fill="#B8A0E0"/>
  <polygon points="80,96 88,104 80,112 72,104" fill="#B8A0E0"/>
</svg>