<svg fill="none" height="25" viewBox="0 0 162 25" width="162" xmlns="http://www.w3.org/2000/svg" xmlns:xlink="http://www.w3.org/1999/xlink"><clipPath id="a"><path d="m0 0h162v25h-162z"/></clipPath><mask id="b" height="25" maskUnits="userSpaceOnUse" width="162" x="0" y="0"><path d="m161.955.046875h-161.9354688v24.935225h161.9354688z" fill="#fff"/></mask><g clip-path="url(#a)"><g mask="url(#b)"><path d="m161.289 11.8669h-23.465c.336-6.18728 5.461-11.100787 11.733-11.100787 6.271 0 11.395 4.913517 11.732 11.100787z" stroke="#fff" stroke-width="2.33161"/><g clip-rule="evenodd" fill="#fff" fill-rule="evenodd"><path d="m149.558 24.9108c-6.847 0-12.398-5.55-12.398-12.3962h24.795c0 6.8462-5.55 12.3962-12.397 12.3962z"/><path d="m38.0106 5.81396h-11.5101v3.03144h4.0988v11.1154h3.7055v-11.1154h3.7058zm1.291 0v3.03144h3.7055v11.1154h3.7055v-11.1154h4.099v-3.03144zm39.7117 14.14684v-14.14638h-3.5367v8.46548l-6.3058-8.46571h-3.5366v14.14661h3.5366v-8.3629l6.3058 8.3632zm-26.4055 0h10.4618v-3.031h-6.7562v-2.7844h5.7267v-3.0315h-5.7267v-2.26824h6.7562v-3.03147h-10.4618zm29.2251 0h3.705v-5.7256h5.9819v-3.0318h-5.9819v-2.358h7.0935v-3.03098h-10.7985zm-70.14-14.14684-4.02928 9.94624h-.0318l-4.02926-9.94624h-3.5830288l5.8042088 14.14684h3.64773l5.80423-14.14684zm108.1611 14.14684h10.232v-3.1401h-6.527v-11.00651h-3.705zm-11.83 0h10.231v-3.1401h-6.526v-11.00651h-3.705zm-10.8656-5.4054 1.9361-4.83176h.0246l1.9429 4.83136zm6.0776 5.4057h3.583l-5.898-14.14691h-3.6285l-5.8983 14.14661h3.5826l1.0163-2.5262h6.2269zm-84.5852-5.4057 1.936-4.83176h.0245l1.943 4.83136zm6.0778 5.4057h3.5825l-5.8977-14.14691h-3.629l-5.8978 14.14661h3.5829l1.0159-2.5262h6.2272z"/></g></g></g></svg>